<svg width="31" height="102" viewBox="0 0 31 102" fill="none" xmlns="http://www.w3.org/2000/svg">
<g id="Group 6669586">
<g id="Group">
<path id="Vector" d="M21.7746 101H9.46621C4.78501 101 1 97.2055 1 92.5338V7.01359C1 4.67775 2.65892 2.68514 4.94709 2.25611L7.80729 1.7222C12.9747 0.759266 18.2661 0.759266 23.4336 1.7222L26.2938 2.25611C28.5819 2.68514 30.2409 4.68728 30.2409 7.01359V92.5338C30.2409 97.215 26.4463 101 21.7746 101Z" fill="#F4F4F4" stroke="#272727" stroke-miterlimit="10" stroke-linecap="round"/>
<path id="Vector_2" d="M7.7844 15.5522C9.21135 15.5522 10.3681 14.3954 10.3681 12.9685C10.3681 11.5415 9.21135 10.3848 7.7844 10.3848C6.35745 10.3848 5.20068 11.5415 5.20068 12.9685C5.20068 14.3954 6.35745 15.5522 7.7844 15.5522Z" stroke="#989696" stroke-miterlimit="10"/>
<path id="Vector_3" d="M15.5246 41.8589C20.8375 41.8589 25.1444 37.552 25.1444 32.2391C25.1444 26.9262 20.8375 22.6193 15.5246 22.6193C10.2117 22.6193 5.90479 26.9262 5.90479 32.2391C5.90479 37.552 10.2117 41.8589 15.5246 41.8589Z" stroke="#989696" stroke-miterlimit="10"/>
<path id="Vector_4" d="M23.6277 15.5522C25.0546 15.5522 26.2114 14.3954 26.2114 12.9685C26.2114 11.5415 25.0546 10.3848 23.6277 10.3848C22.2007 10.3848 21.0439 11.5415 21.0439 12.9685C21.0439 14.3954 22.2007 15.5522 23.6277 15.5522Z" stroke="#989696" stroke-miterlimit="10"/>
<g id="Group_2">
<path id="Vector_5" d="M9.88792 71.8901C11.3149 71.8901 12.4716 70.7333 12.4716 69.3064C12.4716 67.8794 11.3149 66.7227 9.88792 66.7227C8.46097 66.7227 7.3042 67.8794 7.3042 69.3064C7.3042 70.7333 8.46097 71.8901 9.88792 71.8901Z" stroke="#989696" stroke-miterlimit="10"/>
<path id="Vector_6" d="M21.1614 71.8901C22.5883 71.8901 23.7451 70.7333 23.7451 69.3064C23.7451 67.8794 22.5883 66.7227 21.1614 66.7227C19.7344 66.7227 18.5776 67.8794 18.5776 69.3064C18.5776 70.7333 19.7344 71.8901 21.1614 71.8901Z" stroke="#989696" stroke-miterlimit="10"/>
<path id="Vector_7" d="M9.88792 79.7893C11.3149 79.7893 12.4716 78.6325 12.4716 77.2055C12.4716 75.7786 11.3149 74.6218 9.88792 74.6218C8.46097 74.6218 7.3042 75.7786 7.3042 77.2055C7.3042 78.6325 8.46097 79.7893 9.88792 79.7893Z" stroke="#989696" stroke-miterlimit="10"/>
<path id="Vector_8" d="M21.1614 79.7893C22.5883 79.7893 23.7451 78.6325 23.7451 77.2055C23.7451 75.7786 22.5883 74.6218 21.1614 74.6218C19.7344 74.6218 18.5776 75.7786 18.5776 77.2055C18.5776 78.6325 19.7344 79.7893 21.1614 79.7893Z" stroke="#989696" stroke-miterlimit="10"/>
<path id="Vector_9" d="M9.88792 87.6994C11.3149 87.6994 12.4716 86.5427 12.4716 85.1157C12.4716 83.6888 11.3149 82.532 9.88792 82.532C8.46097 82.532 7.3042 83.6888 7.3042 85.1157C7.3042 86.5427 8.46097 87.6994 9.88792 87.6994Z" stroke="#989696" stroke-miterlimit="10"/>
<path id="Vector_10" d="M21.1614 87.6994C22.5883 87.6994 23.7451 86.5427 23.7451 85.1157C23.7451 83.6888 22.5883 82.532 21.1614 82.532C19.7344 82.532 18.5776 83.6888 18.5776 85.1157C18.5776 86.5427 19.7344 87.6994 21.1614 87.6994Z" stroke="#989696" stroke-miterlimit="10"/>
</g>
<path id="Vector_11" d="M25.3065 50.4759C25.3065 48.8699 24.0046 47.568 22.3986 47.568C20.7926 47.568 19.4907 48.8699 19.4907 50.4759V56.8541C19.4907 58.4601 20.7926 59.762 22.3986 59.762C24.0046 59.762 25.3065 58.4601 25.3065 56.8541V50.4759Z" stroke="#989696" stroke-miterlimit="10"/>
<path id="Vector_12" d="M11.7542 50.4759C11.7542 48.8699 10.4523 47.568 8.84635 47.568C7.24038 47.568 5.93848 48.8699 5.93848 50.4759V56.8541C5.93848 58.4601 7.24038 59.762 8.84635 59.762C10.4523 59.762 11.7542 58.4601 11.7542 56.8541V50.4759Z" stroke="#989696" stroke-miterlimit="10"/>
<path id="Vector_13" d="M15.5237 37.0527C18.1827 37.0527 20.3383 34.8971 20.3383 32.238C20.3383 29.5789 18.1827 27.4233 15.5237 27.4233C12.8646 27.4233 10.709 29.5789 10.709 32.238C10.709 34.8971 12.8646 37.0527 15.5237 37.0527Z" stroke="#989696" stroke-miterlimit="10"/>
<path id="Vector_14" d="M15.6197 12.7764C16.2832 12.7764 16.821 12.2385 16.821 11.5751C16.821 10.9116 16.2832 10.3738 15.6197 10.3738C14.9563 10.3738 14.4185 10.9116 14.4185 11.5751C14.4185 12.2385 14.9563 12.7764 15.6197 12.7764Z" fill="#989696"/>
</g>
</g>
</svg>
