<svg width="335" height="240" viewBox="0 0 335 240" fill="none" xmlns="http://www.w3.org/2000/svg">
<mask id="mask0_2588_41555" style="mask-type:alpha" maskUnits="userSpaceOnUse" x="0" y="0" width="335" height="240">
<rect width="335" height="240" fill="#D9D9D9"/>
</mask>
<g mask="url(#mask0_2588_41555)">
<path d="M-29.9688 229.617H344.931" stroke="#D9D9D8" stroke-miterlimit="10" stroke-linecap="round"/>
<path d="M278.124 161.312V229.151H223.598" stroke="#8C8C8C" stroke-miterlimit="10"/>
<path d="M87.1172 102.596L155.356 47.6094L223.584 102.707L223.595 229.156H87.1172V102.596Z" fill="white" stroke="#8C8C8C" stroke-miterlimit="10" stroke-linecap="round"/>
<path d="M228.76 106.773L155.361 47.6058L81.9618 106.773C79.9021 108.44 76.8125 106.973 76.8125 104.338C76.8125 103.393 77.2379 102.503 77.9767 101.903L155.372 39.5234L232.734 101.903C233.473 102.503 233.898 103.393 233.898 104.338C233.898 106.973 230.82 108.44 228.749 106.773H228.76Z" stroke="#8C8C8C" stroke-miterlimit="10"/>
<path d="M103.6 189.253L75.6265 168.118L47.6526 189.253C46.1526 190.387 43.9922 189.319 43.9922 187.452C43.9922 186.74 44.328 186.073 44.8877 185.651L75.6377 162.438L106.354 185.651C106.925 186.084 107.25 186.74 107.25 187.452C107.25 189.319 105.089 190.387 103.589 189.253H103.6Z" fill="white" stroke="#8C8C8C" stroke-miterlimit="10"/>
<path d="M101.403 229.148H49.8438V187.569L75.6236 168.125L101.403 187.569V229.148Z" fill="white" stroke="#8C8C8C" stroke-miterlimit="10"/>
<path d="M88.25 159.775L222.455 158.586" stroke="#D9D9D8" stroke-miterlimit="10" stroke-linecap="round"/>
<path d="M88.25 106.025L222.455 104.836" stroke="#D9D9D8" stroke-miterlimit="10" stroke-linecap="round"/>
<path d="M223.608 120.781L283.261 156.857C284 157.458 284.425 158.347 284.425 159.292C284.425 161.927 281.347 163.394 279.276 161.727L223.586 128.663V120.781H223.608Z" stroke="#8C8C8C" stroke-miterlimit="10"/>
<path d="M313.891 208V229.734" stroke="#D9D9D8" stroke-miterlimit="10" stroke-linecap="round"/>
<path d="M314.572 197.83C314.18 197.83 313.789 197.863 313.408 197.907C312.255 196.684 310.632 195.906 308.818 195.906C305.348 195.906 302.527 198.708 302.527 202.154C302.527 204.3 303.613 206.19 305.281 207.313C305.415 212.304 309.524 216.318 314.572 216.318C319.621 216.318 323.886 212.182 323.886 207.068C323.886 201.954 319.721 197.818 314.572 197.818V197.83Z" stroke="#D9D9D8" stroke-miterlimit="10" stroke-linecap="round"/>
<path d="M17.5078 192.852V229.895" stroke="#D9D9D8" stroke-miterlimit="10" stroke-linecap="round"/>
<path d="M19.8678 177.844H15.1551C12.0578 177.844 9.54688 180.337 9.54688 183.414V205.259C9.54688 208.335 12.0578 210.829 15.1551 210.829H19.8678C22.9651 210.829 25.476 208.335 25.476 205.259V183.414C25.476 180.337 22.9651 177.844 19.8678 177.844Z" stroke="#D9D9D8" stroke-miterlimit="10" stroke-linecap="round"/>
<path fill-rule="evenodd" clip-rule="evenodd" d="M172.438 130.382V123.668C172.438 120.64 174.907 118.188 177.956 118.188H184.302" fill="white"/>
<path d="M172.438 130.382V123.668C172.438 120.64 174.907 118.188 177.956 118.188H184.302" stroke="#8C8C8C" stroke-miterlimit="10"/>
<path fill-rule="evenodd" clip-rule="evenodd" d="M205.489 130.382V123.668C205.489 120.64 203.02 118.188 199.971 118.188H193.625" fill="white"/>
<path d="M205.489 130.382V123.668C205.489 120.64 203.02 118.188 199.971 118.188H193.625" stroke="#8C8C8C" stroke-miterlimit="10"/>
<path fill-rule="evenodd" clip-rule="evenodd" d="M172.438 138.875V145.589C172.438 148.617 174.907 151.069 177.956 151.069H184.302" fill="white"/>
<path d="M172.438 138.875V145.589C172.438 148.617 174.907 151.069 177.956 151.069H184.302" stroke="#8C8C8C" stroke-miterlimit="10"/>
<path fill-rule="evenodd" clip-rule="evenodd" d="M205.489 138.875V145.589C205.489 148.617 203.02 151.069 199.971 151.069H193.625" fill="white"/>
<path d="M205.489 138.875V145.589C205.489 148.617 203.02 151.069 199.971 151.069H193.625" stroke="#8C8C8C" stroke-miterlimit="10"/>
<ellipse cx="188.928" cy="134.696" rx="11.194" ry="11.1174" fill="#2760F0"/>
<path d="M182.773 134.697L186.691 138.588L195.087 130.25" stroke="white" stroke-width="2"/>
</g>
</svg>
