<svg width="50" height="36" viewBox="0 0 50 36" fill="none" xmlns="http://www.w3.org/2000/svg">
<g id="Bank_Checking">
<path id="Vector" d="M25.0291 26.529V24.669C27.2931 24.469 29.0763 23.249 29.0763 20.929C29.0763 18.249 26.9525 17.469 25.0291 16.889V13.429C25.8105 13.609 26.4316 14.029 26.9926 14.629L28.9761 13.289C28.0545 12.089 26.7923 11.369 25.0291 11.209V10.069H23.7068V11.189C21.3225 11.389 19.7998 12.769 19.7998 14.889C19.7998 17.589 21.8434 18.489 23.7068 19.109V22.449C22.6449 22.289 21.8434 21.749 21.2424 20.849L19.1987 22.089C20.0803 23.649 21.6431 24.509 23.7068 24.669V26.529H25.0291ZM25.0291 19.529C25.9307 19.849 26.5919 20.249 26.5919 21.009C26.5919 21.749 26.111 22.309 25.0291 22.449V19.529ZM23.7068 16.429C22.8052 16.029 22.2842 15.589 22.2842 14.829C22.2842 14.149 22.705 13.549 23.7068 13.389V16.429Z" fill="#2760F0"/>
</g>
</svg>
