<svg width="19" height="38" viewBox="0 0 19 38" fill="none" xmlns="http://www.w3.org/2000/svg">
<g id="Group 6669589">
<g id="Group 6669586">
<g id="Group">
<path id="Vector" d="M8.47887 37H4.04784C2.3626 37 1 35.634 1 33.9522V3.16489C1 2.32399 1.59721 1.60665 2.42095 1.4522L3.45063 1.25999C5.3109 0.913336 7.2158 0.913336 9.07608 1.25999L10.1058 1.4522C10.9295 1.60665 11.5267 2.32742 11.5267 3.16489V33.9522C11.5267 35.6374 10.1607 37 8.47887 37Z" stroke="#2760F0" stroke-miterlimit="10" stroke-linecap="round"/>
<path id="Vector_2" opacity="0.5" d="M3.44186 6.23528C3.95556 6.23528 4.372 5.81884 4.372 5.30514C4.372 4.79144 3.95556 4.375 3.44186 4.375C2.92816 4.375 2.51172 4.79144 2.51172 5.30514C2.51172 5.81884 2.92816 6.23528 3.44186 6.23528Z" fill="#2760F0"/>
<path id="Vector_3" opacity="0.5" d="M9.14401 6.23528C9.65771 6.23528 10.0741 5.81884 10.0741 5.30514C10.0741 4.79144 9.65771 4.375 9.14401 4.375C8.6303 4.375 8.21387 4.79144 8.21387 5.30514C8.21387 5.81884 8.6303 6.23528 9.14401 6.23528Z" fill="#2760F0"/>
<g id="Group_2">
<path id="Vector_4" opacity="0.5" d="M4.19869 26.358C4.7124 26.358 5.12883 25.9415 5.12883 25.4278C5.12883 24.9141 4.7124 24.4977 4.19869 24.4977C3.68499 24.4977 3.26855 24.9141 3.26855 25.4278C3.26855 25.9415 3.68499 26.358 4.19869 26.358Z" fill="#2760F0"/>
<path id="Vector_5" opacity="0.5" d="M4.19869 30.2017C4.7124 30.2017 5.12883 29.7853 5.12883 29.2716C5.12883 28.7579 4.7124 28.3414 4.19869 28.3414C3.68499 28.3414 3.26855 28.7579 3.26855 29.2716C3.26855 29.7853 3.68499 30.2017 4.19869 30.2017Z" fill="#2760F0"/>
<path id="Vector_6" d="M8.25338 30.2017C8.76708 30.2017 9.18352 29.7853 9.18352 29.2716C9.18352 28.7579 8.76708 28.3414 8.25338 28.3414C7.73968 28.3414 7.32324 28.7579 7.32324 29.2716C7.32324 29.7853 7.73968 30.2017 8.25338 30.2017Z" fill="#2760F0"/>
</g>
<path id="Vector_7" opacity="0.5" d="M9.74504 18.8164C9.74504 18.2382 9.27635 17.7695 8.6982 17.7695C8.12005 17.7695 7.65137 18.2382 7.65137 18.8164V21.1125C7.65137 21.6907 8.12005 22.1594 8.6982 22.1594C9.27635 22.1594 9.74504 21.6907 9.74504 21.1125V18.8164Z" fill="#2760F0"/>
<path id="Vector_8" opacity="0.5" d="M4.8798 18.8164C4.8798 18.2382 4.41112 17.7695 3.83297 17.7695C3.25482 17.7695 2.78613 18.2382 2.78613 18.8164V21.1125C2.78613 21.6907 3.25482 22.1594 3.83297 22.1594C4.41112 22.1594 4.8798 21.6907 4.8798 21.1125V18.8164Z" fill="#2760F0"/>
<path id="Vector_9" opacity="0.5" d="M6.22059 13.9728C7.17786 13.9728 7.95388 13.1968 7.95388 12.2395C7.95388 11.2822 7.17786 10.5062 6.22059 10.5062C5.26332 10.5062 4.4873 11.2822 4.4873 12.2395C4.4873 13.1968 5.26332 13.9728 6.22059 13.9728Z" stroke="#2760F0" stroke-miterlimit="10"/>
<path id="Vector_10" opacity="0.5" d="M6.26987 5.23993C6.50871 5.23993 6.70233 5.04631 6.70233 4.80746C6.70233 4.56862 6.50871 4.375 6.26987 4.375C6.03102 4.375 5.8374 4.56862 5.8374 4.80746C5.8374 5.04631 6.03102 5.23993 6.26987 5.23993Z" fill="#2760F0"/>
</g>
</g>
<g id="Group 6669588">
<path id="Vector_11" d="M7 31.5C7 32.2223 7.14226 32.9375 7.41866 33.6048C7.69506 34.272 8.10019 34.8784 8.61091 35.3891C9.12163 35.8998 9.72795 36.3049 10.3952 36.5813C11.0625 36.8577 11.7777 37 12.5 37C13.2223 37 13.9375 36.8577 14.6048 36.5813C15.272 36.3049 15.8784 35.8998 16.3891 35.3891C16.8998 34.8784 17.3049 34.272 17.5813 33.6048C17.8577 32.9375 18 32.2223 18 31.5C18 30.0413 17.4205 28.6424 16.3891 27.6109C15.3576 26.5795 13.9587 26 12.5 26C11.0413 26 9.64236 26.5795 8.61091 27.6109C7.57946 28.6424 7 30.0413 7 31.5Z" fill="white" stroke="#F66608" stroke-linecap="round" stroke-linejoin="round"/>
<path id="Vector_12" d="M12.5 29.0541V31.4985" stroke="#F66608" stroke-linecap="round" stroke-linejoin="round"/>
<path id="Vector_13" d="M12.5 33.9459H12.5066" stroke="#F66608" stroke-linecap="round" stroke-linejoin="round"/>
</g>
</g>
</svg>
