<svg width="336" height="170" viewBox="0 0 336 170" fill="none" xmlns="http://www.w3.org/2000/svg">
<rect width="335" height="170" fill="white"/>
<path d="M0.5 160H335.5" stroke="#989696" stroke-width="1.5"/>
<path d="M171.085 31.0064C171.085 32.9928 169.566 34.5119 167.58 34.5119C165.593 34.5119 164.074 32.9928 164.074 31.0064C164.074 29.02 165.593 27.501 167.58 27.501C169.566 27.501 171.085 29.1368 171.085 31.0064Z" stroke="#272727" stroke-width="1.5" stroke-miterlimit="10" stroke-linecap="round" stroke-linejoin="round"/>
<path d="M178.095 25.9821C175.758 22.7103 172.019 20.4902 167.579 20.4902C163.139 20.4902 159.399 22.7103 157.062 25.9821" stroke="#272727" stroke-width="1.5" stroke-miterlimit="10" stroke-linecap="round" stroke-linejoin="round"/>
<path d="M182.536 22.243C179.381 17.5691 173.773 14.2974 167.58 14.2974C161.387 14.2974 155.895 17.4523 152.623 22.243" stroke="#272727" stroke-width="1.5" stroke-miterlimit="10" stroke-linecap="round" stroke-linejoin="round"/>
<path d="M186.158 17.8028C182.185 11.8435 175.408 7.98755 167.579 7.98755C159.75 7.98755 153.09 11.8435 149 17.8028" stroke="#272727" stroke-width="1.5" stroke-miterlimit="10" stroke-linecap="round" stroke-linejoin="round"/>
<path d="M156 7.99927L179 32.9993" stroke="#272727" stroke-width="1.5" stroke-miterlimit="10" stroke-linecap="round" stroke-linejoin="round"/>
<path d="M157 6.99927L180 31.9993" stroke="white" stroke-width="1.5" stroke-miterlimit="10" stroke-linecap="round" stroke-linejoin="round"/>
<path d="M167.65 132.818C170.504 132.818 172.825 130.498 172.825 127.643C172.825 124.788 170.504 122.468 167.65 122.468C164.795 122.468 162.475 124.788 162.475 127.643C162.475 130.498 164.795 132.818 167.65 132.818Z" stroke="#272727" stroke-width="1.5" stroke-miterlimit="10"/>
<path d="M184.12 96.498C184.12 106.726 189.018 127.295 189.84 137.142C190.579 146.083 183.309 158.107 183.309 158.107" stroke="#989696" stroke-width="1.5" stroke-miterlimit="10"/>
<path d="M151.272 96.7146C151.272 106.942 146.374 127.511 145.553 137.359C144.813 146.3 152.083 158.324 152.083 158.324" stroke="#989696" stroke-width="1.5" stroke-miterlimit="10"/>
<path d="M154.741 45.9993V159.977" stroke="#989696" stroke-width="1.5" stroke-miterlimit="10"/>
<path d="M180.412 45.9993V159.977" stroke="#989696" stroke-width="1.5" stroke-miterlimit="10"/>
<path d="M166.227 81.4252H166.587L167.061 83.1779L167.465 81.4252H167.795L167.265 83.5815H166.873L166.402 81.8256L165.94 83.5815H165.549L165.01 81.4252H165.361L165.755 83.1749L166.227 81.4252Z" fill="#272727"/>
<path d="M168.445 82.7836V83.5815H168.118V81.4252H168.799C169.277 81.4252 169.542 81.727 169.542 82.0998C169.542 82.4694 169.277 82.7836 168.799 82.7836H168.445ZM168.775 81.7024H168.445V82.5064H168.775C169.027 82.5064 169.209 82.3585 169.209 82.0998C169.209 81.8379 169.027 81.7024 168.775 81.7024Z" fill="#272727"/>
<path d="M171.065 81.6778L170.874 81.9057C170.76 81.7609 170.597 81.6685 170.43 81.6685C170.187 81.6685 170.085 81.8102 170.085 81.9396C170.085 82.0351 170.125 82.1398 170.316 82.2415L170.572 82.377C170.932 82.568 171.071 82.7467 171.071 83.0085C171.071 83.3597 170.794 83.6185 170.384 83.6185C170.07 83.6185 169.811 83.4922 169.666 83.3104L169.839 83.0455C169.953 83.2026 170.15 83.3351 170.375 83.3351C170.581 83.3351 170.745 83.218 170.745 83.027C170.745 82.8699 170.652 82.7775 170.409 82.6481L170.187 82.531C169.897 82.3801 169.765 82.2076 169.765 81.955C169.765 81.5946 170.082 81.3882 170.427 81.3882C170.671 81.3882 170.902 81.4806 171.065 81.6778Z" fill="#272727"/>
<path d="M166.227 90.0505H166.587L167.061 91.8033L167.465 90.0505H167.795L167.265 92.2069H166.873L166.402 90.451L165.94 92.2069H165.549L165.01 90.0505H165.361L165.755 91.8002L166.227 90.0505Z" fill="#272727"/>
<path d="M168.118 92.2069V90.0505H168.445V92.2069H168.118Z" fill="#272727"/>
<path d="M170.098 91.3043H169.263V92.2069H168.937V90.0505H170.406V90.3309H169.263V91.027H170.098V91.3043Z" fill="#272727"/>
<path d="M170.697 92.2069V90.0505H171.023V92.2069H170.697Z" fill="#272727"/>
<path d="M163.282 99.7631V100.561H162.956V98.4046H163.637C164.114 98.4046 164.379 98.7065 164.379 99.0793C164.379 99.4489 164.114 99.7631 163.637 99.7631H163.282ZM163.612 98.6819H163.282V99.4859H163.612C163.865 99.4859 164.046 99.338 164.046 99.0793C164.046 98.8174 163.865 98.6819 163.612 98.6819Z" fill="#272727"/>
<path d="M165.678 98.3677C166.297 98.3677 166.799 98.8328 166.799 99.4828C166.799 100.133 166.297 100.598 165.678 100.598C165.055 100.598 164.553 100.133 164.553 99.4828C164.553 98.8328 165.055 98.3677 165.678 98.3677ZM165.678 100.315C166.146 100.315 166.463 99.9603 166.463 99.4828C166.463 99.0084 166.146 98.6542 165.678 98.6542C165.209 98.6542 164.889 99.0084 164.889 99.4828C164.889 99.9603 165.209 100.315 165.678 100.315Z" fill="#272727"/>
<path d="M168.155 98.4046H168.515L168.989 100.157L169.393 98.4046H169.722L169.193 100.561H168.801L168.33 98.8051L167.868 100.561H167.477L166.938 98.4046H167.289L167.683 100.154L168.155 98.4046Z" fill="#272727"/>
<path d="M171.571 98.4046V98.685H170.373V99.3257H171.128V99.5999H170.373V100.287H171.571V100.561H170.046V98.4046H171.571Z" fill="#272727"/>
<path d="M173.002 100.561L172.524 99.6584H172.244V100.561H171.918V98.4046H172.574C173.039 98.4046 173.31 98.6542 173.31 99.0238C173.31 99.2302 173.208 99.5167 172.845 99.6183L173.368 100.561H173.002ZM172.983 99.0238C172.983 98.7866 172.808 98.6819 172.549 98.6819H172.244V99.3811H172.549C172.808 99.3811 172.983 99.2518 172.983 99.0238Z" fill="#272727"/>
<path d="M155.821 46.4727C153.306 46.4727 151.252 48.5123 151.252 51.0463L151.252 156.456C151.252 157.177 152.844 159.423 154.805 159.423H180.558C182.519 159.423 184.11 157.177 184.11 154.396V51.0875C184.11 48.5638 182.077 46.5242 179.561 46.5139L155.821 46.4727Z" stroke="#272727" stroke-width="1.5" stroke-miterlimit="10"/>
<path d="M180.989 81.9382H179.931C179.761 81.9382 179.623 82.0761 179.623 82.2463V83.3039C179.623 83.474 179.761 83.612 179.931 83.612H180.989C181.159 83.612 181.297 83.474 181.297 83.3039V82.2463C181.297 82.0761 181.159 81.9382 180.989 81.9382Z" fill="#272727"/>
<path d="M180.989 90.1528H179.931C179.761 90.1528 179.623 90.2907 179.623 90.4609V91.5185C179.623 91.6886 179.761 91.8266 179.931 91.8266H180.989C181.159 91.8266 181.297 91.6886 181.297 91.5185V90.4609C181.297 90.2907 181.159 90.1528 180.989 90.1528Z" fill="#272727"/>
<path d="M180.989 98.3674H179.931C179.761 98.3674 179.623 98.5053 179.623 98.6755V99.7331C179.623 99.9032 179.761 100.041 179.931 100.041H180.989C181.159 100.041 181.297 99.9032 181.297 99.7331V98.6755C181.297 98.5053 181.159 98.3674 180.989 98.3674Z" fill="#272727"/>
<path d="M155.286 98.3674H154.228C154.058 98.3674 153.92 98.5054 153.92 98.6755V99.7331C153.92 99.9032 154.058 100.041 154.228 100.041H155.286C155.456 100.041 155.594 99.9032 155.594 99.7331V98.6755C155.594 98.5054 155.456 98.3674 155.286 98.3674Z" fill="#272727"/>
<path d="M155.286 90.1528H154.228C154.058 90.1528 153.92 90.2908 153.92 90.4609V91.5185C153.92 91.6886 154.058 91.8266 154.228 91.8266H155.286C155.456 91.8266 155.594 91.6886 155.594 91.5185V90.4609C155.594 90.2908 155.456 90.1528 155.286 90.1528Z" fill="#272727"/>
<path d="M155.286 81.9385H154.228C154.058 81.9385 153.92 82.0764 153.92 82.2465V83.3042C153.92 83.4743 154.058 83.6122 154.228 83.6122H155.286C155.456 83.6122 155.594 83.4743 155.594 83.3042V82.2465C155.594 82.0764 155.456 81.9385 155.286 81.9385Z" fill="#272727"/>
</svg>
