<svg width="100" height="77" viewBox="0 0 100 77" fill="none" xmlns="http://www.w3.org/2000/svg">
<rect width="100" height="77" fill="#B9B9B9"/>
<g id="Problem with Optimum One remote" clip-path="url(#clip0_6374_10277)">
<rect width="375" height="667" transform="translate(-137 -49)" fill="#F4F4F4"/>
<g id="ProblemStreamHero">
<g id="Group 6669586">
<g id="Group 6669585">
<path id="Line 73" d="M2 66.0703L79.0212 66.0703" stroke="#989696" stroke-linecap="round"/>
<path id="Rectangle 1161" d="M3.80328 71.5593C1.69648 68.925 0.5 65.3325 0.5 61.5693C0.5 60.8113 0.741741 60.1009 1.14908 59.5916C1.5541 59.0851 2.07636 58.8307 2.59 58.8307H97.41C97.9237 58.8307 98.4459 59.0851 98.8509 59.5916C99.2583 60.1009 99.5 60.8113 99.5 61.5693C99.5 63.4306 99.2067 65.2721 98.6384 66.9876C98.0701 68.7033 97.239 70.256 96.1967 71.5593C95.1546 72.8625 93.9233 73.8887 92.5771 74.5859C91.2315 75.2829 89.7948 75.639 88.348 75.639H11.652C8.73496 75.639 5.90775 74.1908 3.80328 71.5593Z" stroke="#272727"/>
<path id="Ellipse 68" d="M85.7031 68.9974C86.8077 68.9974 87.7031 68.102 87.7031 66.9974C87.7031 65.8928 86.8077 64.9974 85.7031 64.9974C84.5986 64.9974 83.7031 65.8928 83.7031 66.9974C83.7031 68.102 84.5986 68.9974 85.7031 68.9974Z" fill="#272727"/>
</g>
<g id="Group">
<path id="Vector" d="M31.6303 76H22.3697C18.8477 76 16 73.1451 16 69.6302V5.28721C16 3.52979 17.2481 2.03061 18.9697 1.70782L21.1216 1.30612C25.0095 0.581635 28.9905 0.581635 32.8784 1.30612L35.0303 1.70782C36.7519 2.03061 38 3.53697 38 5.28721V69.6302C38 73.1522 35.1451 76 31.6303 76Z" fill="#F4F4F4" stroke="#272727" stroke-miterlimit="10" stroke-linecap="round"/>
<path id="Vector_2" d="M21.1046 11.7114C22.1782 11.7114 23.0485 10.8411 23.0485 9.7675C23.0485 8.6939 22.1782 7.82358 21.1046 7.82358C20.031 7.82358 19.1606 8.6939 19.1606 9.7675C19.1606 10.8411 20.031 11.7114 21.1046 11.7114Z" stroke="#989696" stroke-miterlimit="10"/>
<path id="Vector_3" d="M26.9247 31.5065C30.922 31.5065 34.1624 28.2661 34.1624 24.2688C34.1624 20.2715 30.922 17.0311 26.9247 17.0311C22.9274 17.0311 19.687 20.2715 19.687 24.2688C19.687 28.2661 22.9274 31.5065 26.9247 31.5065Z" stroke="#989696" stroke-miterlimit="10"/>
<path id="Vector_4" d="M33.0245 11.7114C34.0981 11.7114 34.9684 10.8411 34.9684 9.7675C34.9684 8.6939 34.0981 7.82358 33.0245 7.82358C31.9509 7.82358 31.0806 8.6939 31.0806 9.7675C31.0806 10.8411 31.9509 11.7114 33.0245 11.7114Z" stroke="#989696" stroke-miterlimit="10"/>
<g id="Group_2">
<path id="Vector_5" d="M22.6881 54.0972C23.7617 54.0972 24.632 53.2269 24.632 52.1533C24.632 51.0797 23.7617 50.2094 22.6881 50.2094C21.6145 50.2094 20.7441 51.0797 20.7441 52.1533C20.7441 53.2269 21.6145 54.0972 22.6881 54.0972Z" stroke="#989696" stroke-miterlimit="10"/>
<path id="Vector_6" d="M31.1666 54.0972C32.2402 54.0972 33.1105 53.2269 33.1105 52.1533C33.1105 51.0797 32.2402 50.2094 31.1666 50.2094C30.093 50.2094 29.2227 51.0797 29.2227 52.1533C29.2227 53.2269 30.093 54.0972 31.1666 54.0972Z" stroke="#989696" stroke-miterlimit="10"/>
<path id="Vector_7" d="M22.6881 60.0431C23.7617 60.0431 24.632 59.1728 24.632 58.0992C24.632 57.0256 23.7617 56.1553 22.6881 56.1553C21.6145 56.1553 20.7441 57.0256 20.7441 58.0992C20.7441 59.1728 21.6145 60.0431 22.6881 60.0431Z" stroke="#989696" stroke-miterlimit="10"/>
<path id="Vector_8" d="M31.1666 60.0431C32.2402 60.0431 33.1105 59.1728 33.1105 58.0992C33.1105 57.0256 32.2402 56.1553 31.1666 56.1553C30.093 56.1553 29.2227 57.0256 29.2227 58.0992C29.2227 59.1728 30.093 60.0431 31.1666 60.0431Z" stroke="#989696" stroke-miterlimit="10"/>
<path id="Vector_9" d="M22.6881 65.989C23.7617 65.989 24.632 65.1187 24.632 64.0451C24.632 62.9715 23.7617 62.1011 22.6881 62.1011C21.6145 62.1011 20.7441 62.9715 20.7441 64.0451C20.7441 65.1187 21.6145 65.989 22.6881 65.989Z" stroke="#989696" stroke-miterlimit="10"/>
<path id="Vector_10" d="M31.1666 65.989C32.2402 65.989 33.1105 65.1187 33.1105 64.0451C33.1105 62.9715 32.2402 62.1011 31.1666 62.1011C30.093 62.1011 29.2227 62.9715 29.2227 64.0451C29.2227 65.1187 30.093 65.989 31.1666 65.989Z" stroke="#989696" stroke-miterlimit="10"/>
</g>
<path id="Vector_11" d="M34.2843 37.9866C34.2843 36.7783 33.3048 35.7988 32.0965 35.7988C30.8882 35.7988 29.9087 36.7783 29.9087 37.9866V42.7854C29.9087 43.9937 30.8882 44.9732 32.0965 44.9732C33.3048 44.9732 34.2843 43.9937 34.2843 42.7854V37.9866Z" stroke="#989696" stroke-miterlimit="10"/>
<path id="Vector_12" d="M24.0909 37.9866C24.0909 36.7783 23.1114 35.7988 21.9031 35.7988C20.6948 35.7988 19.7153 36.7783 19.7153 37.9866V42.7854C19.7153 43.9937 20.6948 44.9732 21.9031 44.9732C23.1114 44.9732 24.0909 43.9937 24.0909 42.7854V37.9866Z" stroke="#989696" stroke-miterlimit="10"/>
<path id="Vector_13" d="M26.9247 27.8903C28.9253 27.8903 30.5471 26.2684 30.5471 24.2678C30.5471 22.2672 28.9253 20.6454 26.9247 20.6454C24.9241 20.6454 23.3022 22.2672 23.3022 24.2678C23.3022 26.2684 24.9241 27.8903 26.9247 27.8903Z" stroke="#989696" stroke-miterlimit="10"/>
<path id="Vector_14" d="M27.0029 9.62571C27.5021 9.62571 27.9068 9.22106 27.9068 8.7219C27.9068 8.22274 27.5021 7.81808 27.0029 7.81808C26.5038 7.81808 26.0991 8.22274 26.0991 8.7219C26.0991 9.22106 26.5038 9.62571 27.0029 9.62571Z" fill="#989696"/>
</g>
</g>
</g>
</g>
<defs>
<clipPath id="clip0_6374_10277">
<rect width="375" height="667" fill="white" transform="translate(-137 -49)"/>
</clipPath>
</defs>
</svg>
