<?xml version="1.0" encoding="UTF-8"?><svg id="Layer_1" xmlns="http://www.w3.org/2000/svg" xmlns:xlink="http://www.w3.org/1999/xlink" viewBox="0 0 335 170"><defs><style>.cls-1{stroke-miterlimit:10;}.cls-1,.cls-2,.cls-3,.cls-4{fill:none;}.cls-1,.cls-5,.cls-4{stroke-width:1.5px;}.cls-1,.cls-3{stroke:#989696;stroke-linecap:round;}.cls-6{clip-path:url(#clippath);}.cls-5{fill:#fff;}.cls-5,.cls-4{stroke:#272727;}.cls-3{stroke-width:2px;}</style><clipPath id="clippath"><path class="cls-2" d="M161.21,159.58h-30.19s-5.8,.15-13.38,0c-2.29-.04-4.31-3.33-2.7-6.67,1.61-3.35,6.28-11.9,6.43-15.91,.13-3.54-.03-5.95,0-7.91l.15-80.25c0-2.16,1.13-5.46,3.43-6.44,5.45-2.32,31.5-7.65,31.5-7.65,0,0,2.28-.81,4.26-.41-3.24,.49-5.81,3.29-5.81,6.76l-.4,109.4c0,4.28,2.82,7.89,6.71,9.08h0Z"/></clipPath></defs><line id="Line_115" class="cls-1" x1="2.5" y1="159.64" x2="332.5" y2="159.64"/><g><g class="cls-6"><g><g><path class="cls-3" d="M146.6,42.97c-.5-4.67,2.47-7.51,6.52-8"/><path class="cls-3" d="M141.99,43.97c-.5-4.67,2.47-7.51,6.52-8"/><path class="cls-3" d="M137.39,44.97c-.5-4.67,2.47-7.51,6.52-8"/><path class="cls-3" d="M132.65,46.09c-.5-4.67,2.47-7.51,6.52-8"/><path class="cls-3" d="M128.17,47.16c-.5-4.67,2.47-7.51,6.52-8"/></g><g><path class="cls-3" d="M146.6,152.64c-.5,4.67,2.47,7.51,6.52,8"/><path class="cls-3" d="M141.99,152.64c-.5,4.67,2.47,7.51,6.52,8"/><path class="cls-3" d="M137.39,152.64c-.5,4.67,2.47,7.51,6.52,8"/><path class="cls-3" d="M132.65,152.64c-.5,4.67,2.47,7.51,6.52,8"/><path class="cls-3" d="M128.17,152.64c-.5,4.67,2.47,7.51,6.52,8"/></g></g></g><path class="cls-4" d="M161.21,159.58h-30.19s-5.8,.15-13.38,0c-2.29-.04-4.31-3.33-2.7-6.67,1.61-3.35,6.28-11.9,6.43-15.91,.13-3.54-.03-5.95,0-7.91l.15-80.25c0-2.16,1.13-5.46,3.43-6.44,5.45-2.32,31.5-7.65,31.5-7.65,0,0,2.28-.81,4.26-.41-3.24,.49-5.81,3.29-5.81,6.76l-.4,109.4c0,4.28,2.82,7.89,6.71,9.08h0Z"/><path class="cls-5" d="M202.81,160h-38.81c-5.25,0-9.51-4.26-9.51-9.51l.41-109.4c0-4.15,3.67-7.35,7.78-6.77l46.08,5.03c3.67,.51,6.4,3.65,6.4,7.36l-.41,101.34c0,6.6-5.35,11.95-11.95,11.95h0Z"/><path class="cls-5" d="M209.93,155.86h-40.84c-5.33,0-9.65-4.32-9.65-9.65V39.79c0-3.47,3.07-6.14,6.5-5.66l46.51,5.07c4.7,.65,8.19,4.67,8.19,9.41v96.53c0,5.92-4.8,10.71-10.71,10.71h0Z"/></g></svg>