<?xml version="1.0" encoding="UTF-8"?><svg id="Layer_1" xmlns="http://www.w3.org/2000/svg" viewBox="0 0 335 170"><defs><style>.cls-1{stroke-linecap:round;}.cls-1,.cls-2{stroke:#989696;}.cls-1,.cls-2,.cls-3{fill:none;stroke-miterlimit:10;stroke-width:1.5px;}.cls-3{stroke:#272727;}.cls-4{fill:#2760f0;}</style></defs><line id="Line_98" class="cls-1" y1="159.49" x2="335" y2="159.49"/><g><circle id="Oval" class="cls-2" cx="167.5" cy="144.89" r="5.04"/><circle id="Oval_Copy_6" class="cls-2" cx="167.5" cy="132.82" r="3.45"/><circle id="Oval_Copy_7" class="cls-2" cx="167.5" cy="122.56" r="3.45"/><circle id="Oval_Copy_8" class="cls-2" cx="167.5" cy="112.3" r="3.45"/><g id="Rectangle"><rect class="cls-3" x="149.18" y="56.49" width="36.63" height="103" rx="3.96" ry="3.96"/></g></g><g><g id="Internet"><path class="cls-4" d="M167.52,46.63c-2.57,0-4.6-2.02-4.6-4.6s2.02-4.6,4.6-4.6,4.6,2.11,4.6,4.6-2.02,4.6-4.6,4.6Zm0-7.14c-1.43,0-2.56,1.11-2.56,2.56s1.11,2.56,2.56,2.56,2.56-1.11,2.56-2.56-1.2-2.56-2.56-2.56Z"/></g><g><path class="cls-4" d="M178.38,37.91c-.33,0-.64-.15-.84-.43-2.38-3.36-6.03-5.29-10.03-5.29s-7.65,1.93-10.03,5.29c-.33,.46-.97,.57-1.43,.25s-.57-.97-.25-1.43c2.77-3.92,7.03-6.14,11.7-6.14s8.93,2.24,11.7,6.14c.33,.46,.21,1.1-.25,1.43-.18,.13-.39,.18-.59,.18Z"/><path class="cls-4" d="M182.95,34.04c-.33,0-.66-.16-.85-.44-3.26-4.82-8.72-7.7-14.6-7.7s-11.14,2.82-14.6,7.72c-.33,.46-.97,.57-1.43,.25-.46-.33-.57-.97-.25-1.43,3.8-5.37,9.88-8.59,16.27-8.59s12.65,3.21,16.29,8.6c.31,.48,.2,1.1-.28,1.43-.18,.11-.38,.18-.57,.18l.02-.02Z"/><path class="cls-4" d="M186.67,29.47c-.33,0-.66-.16-.85-.46-4.1-6.08-10.94-9.7-18.3-9.7s-14.2,3.62-18.3,9.7c-.31,.48-.95,.59-1.43,.28s-.59-.95-.28-1.43c4.47-6.64,11.96-10.6,20-10.6s15.53,3.96,20,10.6c.31,.48,.2,1.1-.28,1.43-.18,.11-.38,.18-.57,.18Z"/></g></g></svg>