<?xml version="1.0" encoding="UTF-8"?><svg id="Layer_1" xmlns="http://www.w3.org/2000/svg" viewBox="0 0 335 170"><defs><style>.cls-1{stroke-linecap:round;}.cls-1,.cls-2{stroke:#989696;}.cls-1,.cls-2,.cls-3{fill:none;}.cls-1,.cls-2,.cls-3,.cls-4{stroke-miterlimit:10;stroke-width:1.5px;}.cls-3,.cls-4{stroke:#272727;}.cls-4{fill:#fff;}</style></defs><line id="Line_98" class="cls-1" y1="159.49" x2="335" y2="159.49"/><line class="cls-2" x1="147.29" y1="160" x2="147.29" y2="91.85"/><path class="cls-2" d="M197.49,101.97v58.03"/><path class="cls-3" d="M256.08,101.47v58.14s-187.95,0-187.45,0V75.38"/><path class="cls-3" d="M197.49,75.89v26.08"/><line class="cls-2" x1="69.55" y1="91.85" x2="196.56" y2="91.85"/><path class="cls-4" d="M194.48,110.04c-.78,0-1.55-.36-2.05-1.03-.84-1.13-.6-2.73,.53-3.57l34.59-25.63,34.59,25.63c1.13,.84,1.37,2.44,.53,3.57-.84,1.13-2.44,1.37-3.57,.53l-31.55-23.38-31.55,23.38c-.46,.34-.99,.5-1.52,.5Z"/><path class="cls-4" d="M63.22,79.3c-.78,0-1.55-.36-2.05-1.03-.84-1.13-.6-2.73,.53-3.57L133.3,21.07l71.59,53.63c1.13,.84,1.37,2.44,.53,3.57-.84,1.13-2.44,1.37-3.57,.53L133.3,27.42l-68.55,51.38c-.46,.34-.99,.5-1.52,.5Z"/><g><line class="cls-2" x1="290.05" y1="130.98" x2="290.05" y2="159.35"/><rect class="cls-2" x="284" y="119.49" width="12.11" height="25.25" rx="6.06" ry="6.06"/></g><g><line class="cls-2" x1="33.26" y1="138.29" x2="33.26" y2="159.75"/><path class="cls-2" d="M33.93,128.24c-.39,0-.77,.03-1.14,.08-1.13-1.21-2.72-1.97-4.5-1.97-3.41,0-6.17,2.76-6.17,6.17,0,2.12,1.07,3.98,2.7,5.1,.13,4.93,4.16,8.88,9.11,8.88s9.13-4.09,9.13-9.13-4.09-9.13-9.13-9.13Z"/></g></svg>