<svg width="335" height="170" viewBox="0 0 335 170" fill="none" xmlns="http://www.w3.org/2000/svg">
<rect width="335" height="170" fill="white"/>
<path d="M0 160H335" stroke="#989696" stroke-width="1.5"/>
<path d="M109.537 128.052C112.892 128.052 115.62 125.324 115.62 121.969C115.62 118.613 112.892 115.885 109.537 115.885C106.181 115.885 103.454 118.613 103.454 121.969C103.454 125.324 106.181 128.052 109.537 128.052Z" stroke="#272727" stroke-width="1.5" stroke-miterlimit="10"/>
<path d="M128.897 85.3589C128.897 97.3813 134.654 121.559 135.62 133.135C136.489 143.645 127.943 157.779 127.943 157.779" stroke="#989696" stroke-width="1.5" stroke-miterlimit="10"/>
<path d="M90.2851 85.6135C90.2851 97.636 84.5277 121.814 83.5621 133.389C82.693 143.9 91.2386 158.034 91.2386 158.034" stroke="#989696" stroke-width="1.5" stroke-miterlimit="10"/>
<path d="M94.3628 25.999V159.976" stroke="#989696" stroke-width="1.5" stroke-miterlimit="10"/>
<path d="M124.538 25.999V159.976" stroke="#989696" stroke-width="1.5" stroke-miterlimit="10"/>
<path d="M107.863 67.6411H108.287L108.845 69.7015L109.319 67.6411H109.706L109.084 70.1758H108.624L108.07 68.1119L107.527 70.1758H107.067L106.433 67.6411H106.846L107.309 69.6978L107.863 67.6411Z" fill="#272727"/>
<path d="M110.471 69.238V70.1758H110.087V67.6411H110.887C111.449 67.6411 111.76 67.996 111.76 68.4341C111.76 68.8686 111.449 69.238 110.887 69.238H110.471ZM110.859 67.967H110.471V68.9121H110.859C111.155 68.9121 111.369 68.7383 111.369 68.4341C111.369 68.1263 111.155 67.967 110.859 67.967Z" fill="#272727"/>
<path d="M113.551 67.938L113.326 68.206C113.192 68.0358 113 67.9272 112.805 67.9272C112.519 67.9272 112.399 68.0937 112.399 68.2458C112.399 68.3581 112.446 68.4812 112.671 68.6007L112.971 68.76C113.395 68.9845 113.558 69.1945 113.558 69.5023C113.558 69.9151 113.232 70.2193 112.751 70.2193C112.381 70.2193 112.077 70.0708 111.907 69.8572L112.11 69.5458C112.244 69.7304 112.475 69.8861 112.74 69.8861C112.982 69.8861 113.174 69.7485 113.174 69.524C113.174 69.3394 113.066 69.2307 112.78 69.0787L112.519 68.9411C112.178 68.7636 112.023 68.5609 112.023 68.2639C112.023 67.8403 112.396 67.5977 112.801 67.5977C113.087 67.5977 113.359 67.7063 113.551 67.938Z" fill="#272727"/>
<path d="M107.863 77.78H108.287L108.845 79.8404L109.319 77.78H109.706L109.084 80.3147H108.624L108.07 78.2508L107.527 80.3147H107.067L106.433 77.78H106.846L107.309 79.8368L107.863 77.78Z" fill="#272727"/>
<path d="M110.087 80.3147V77.78H110.471V80.3147H110.087Z" fill="#272727"/>
<path d="M112.414 79.2538H111.433V80.3147H111.049V77.78H112.776V78.1095H111.433V78.9279H112.414V79.2538Z" fill="#272727"/>
<path d="M113.118 80.3147V77.78H113.502V80.3147H113.118Z" fill="#272727"/>
<path d="M104.403 89.197V90.1348H104.019V87.6001H104.819C105.38 87.6001 105.692 87.9549 105.692 88.3931C105.692 88.8276 105.38 89.197 104.819 89.197H104.403ZM104.79 87.926H104.403V88.8711H104.79C105.087 88.8711 105.301 88.6973 105.301 88.3931C105.301 88.0853 105.087 87.926 104.79 87.926Z" fill="#272727"/>
<path d="M107.218 87.5566C107.946 87.5566 108.536 88.1034 108.536 88.8674C108.536 89.6315 107.946 90.1782 107.218 90.1782C106.487 90.1782 105.896 89.6315 105.896 88.8674C105.896 88.1034 106.487 87.5566 107.218 87.5566ZM107.218 89.8451C107.768 89.8451 108.141 89.4287 108.141 88.8674C108.141 88.3098 107.768 87.8934 107.218 87.8934C106.668 87.8934 106.291 88.3098 106.291 88.8674C106.291 89.4287 106.668 89.8451 107.218 89.8451Z" fill="#272727"/>
<path d="M110.13 87.6001H110.553L111.111 89.6604L111.585 87.6001H111.973L111.35 90.1348H110.89L110.336 88.0708L109.793 90.1348H109.333L108.699 87.6001H109.112L109.576 89.6568L110.13 87.6001Z" fill="#272727"/>
<path d="M114.146 87.6001V87.9296H112.737V88.6828H113.624V89.005H112.737V89.8125H114.146V90.1348H112.354V87.6001H114.146Z" fill="#272727"/>
<path d="M115.828 90.1348L115.266 89.0738H114.937V90.1348H114.553V87.6001H115.324C115.871 87.6001 116.19 87.8934 116.19 88.3279C116.19 88.5705 116.07 88.9073 115.643 89.0268L116.258 90.1348H115.828ZM115.806 88.3279C115.806 88.0491 115.599 87.926 115.295 87.926H114.937V88.7479H115.295C115.599 88.7479 115.806 88.5959 115.806 88.3279Z" fill="#272727"/>
<path d="M95.6324 26.5554C92.6752 26.5554 90.2612 28.9529 90.2612 31.9316L90.2612 155.838C90.2612 156.686 92.1321 159.325 94.4375 159.325H124.709C127.014 159.325 128.885 156.686 128.885 153.416V31.9801C128.885 29.0135 126.495 26.616 123.538 26.6039L95.6324 26.5554Z" stroke="#272727" stroke-width="1.5" stroke-miterlimit="10"/>
<path d="M125.216 68.2444H123.972C123.772 68.2444 123.61 68.4065 123.61 68.6065V69.8497C123.61 70.0497 123.772 70.2118 123.972 70.2118H125.216C125.416 70.2118 125.578 70.0497 125.578 69.8497V68.6065C125.578 68.4065 125.416 68.2444 125.216 68.2444Z" fill="#272727"/>
<path d="M125.216 77.9006H123.972C123.772 77.9006 123.61 78.0628 123.61 78.2627V79.5059C123.61 79.7059 123.772 79.868 123.972 79.868H125.216C125.416 79.868 125.578 79.7059 125.578 79.5059V78.2627C125.578 78.0628 125.416 77.9006 125.216 77.9006Z" fill="#272727"/>
<path d="M125.216 87.5566H123.972C123.772 87.5566 123.61 87.7188 123.61 87.9187V89.162C123.61 89.3619 123.772 89.524 123.972 89.524H125.216C125.416 89.524 125.578 89.3619 125.578 89.162V87.9187C125.578 87.7188 125.416 87.5566 125.216 87.5566Z" fill="#272727"/>
<path d="M95.0028 87.5566H93.7596C93.5596 87.5566 93.3975 87.7188 93.3975 87.9187V89.162C93.3975 89.3619 93.5596 89.5241 93.7596 89.5241H95.0028C95.2028 89.5241 95.365 89.3619 95.365 89.162V87.9187C95.365 87.7188 95.2028 87.5566 95.0028 87.5566Z" fill="#272727"/>
<path d="M95.0028 77.9006H93.7596C93.5596 77.9006 93.3975 78.0628 93.3975 78.2627V79.506C93.3975 79.7059 93.5596 79.8681 93.7596 79.8681H95.0028C95.2028 79.8681 95.365 79.7059 95.365 79.506V78.2627C95.365 78.0628 95.2028 77.9006 95.0028 77.9006Z" fill="#272727"/>
<path d="M95.0028 68.2446H93.7596C93.5596 68.2446 93.3975 68.4068 93.3975 68.6067V69.85C93.3975 70.0499 93.5596 70.212 93.7596 70.212H95.0028C95.2028 70.212 95.365 70.0499 95.365 69.85V68.6067C95.365 68.4068 95.2028 68.2446 95.0028 68.2446Z" fill="#272727"/>
<path d="M226.255 107.731V82.5044" stroke="#272727" stroke-width="1.5" stroke-miterlimit="10"/>
<path d="M189.2 112.377C193.039 105.956 200.015 101.08 207.39 101.08C217.818 101.08 226.267 109.529 226.267 119.957C226.267 122.999 225.543 125.992 224.131 128.684L222.707 131.17C219.327 135.721 214.004 138.412 208.331 138.424H207.148C197.251 138.4 189.237 130.374 189.212 120.476V84.4836H185.64V120.476C185.664 132.353 195.284 141.961 207.148 141.997H208.343C220.148 141.937 229.671 132.317 229.611 120.513C229.611 120.501 229.611 120.488 229.611 120.476L229.635 119.245C229.635 106.958 219.677 97.0123 207.39 97.0123C203.793 97.0123 200.256 97.8934 197.07 99.547C194.185 101.152 191.542 103.144 189.2 105.461" stroke="#272727" stroke-width="1.5" stroke-miterlimit="10"/>
<path d="M229.828 82.5044L229.43 123.023" stroke="#272727" stroke-width="1.5"/>
<path d="M189.405 58.6899H185.76V66.7406H189.405V58.6899Z" stroke="#272727" stroke-width="1.5" stroke-miterlimit="10"/>
<path d="M189.49 81.4541H185.688V84.025H189.49V81.4541Z" stroke="#272727" stroke-width="1.5" stroke-miterlimit="10"/>
<path d="M190.721 81.4655H184.445L183.358 73.2096V66.7522H191.807V73.1734L190.721 81.4655Z" stroke="#272727" stroke-width="1.5" stroke-miterlimit="10"/>
<path d="M227.342 74.2358H230.842" stroke="#989696" stroke-width="1.5" stroke-miterlimit="10" stroke-linecap="round"/>
<path d="M225.58 78.1104H229.092" stroke="#989696" stroke-width="1.5" stroke-miterlimit="10" stroke-linecap="round"/>
<path d="M242.284 42.999H225.35V70.7962H242.284V42.999Z" stroke="#272727" stroke-width="1.5" stroke-miterlimit="10" stroke-linecap="round"/>
<path d="M251.566 50.5547H242.285V53.7894H251.566V50.5547Z" stroke="#272727" stroke-width="1.5" stroke-miterlimit="10" stroke-linecap="round"/>
<path d="M225.35 70.8318H230.842V81.4172C230.842 82.4552 229.997 83.3001 228.959 83.3001H227.245C226.207 83.3001 225.362 82.4552 225.362 81.4172V70.8318H225.35Z" stroke="#272727" stroke-width="1.5" stroke-miterlimit="10"/>
<path d="M232.242 70.1565V43.6025" stroke="#989696" stroke-width="1.5"/>
</svg>
