<svg width="40" height="29" viewBox="0 0 40 29" fill="none" xmlns="http://www.w3.org/2000/svg">
<g id="Group 6669587">
<g id="Group 3465224">
<g id="Group 3465337">
<path id="Vector 731" d="M3.1 23.6807H29.7415H36.9C38.0598 23.6807 39 22.7405 39 21.5807V3.31875C39 2.15895 38.0598 1.21875 36.9 1.21875H3.1C1.9402 1.21875 1 2.15896 1 3.31875V21.5807C1 22.7405 1.9402 23.6807 3.1 23.6807Z" stroke="#2760F0"/>
<g id="Group 6669588">
<path id="Vector" d="M15 12.5C15 13.2223 15.1423 13.9375 15.4187 14.6048C15.6951 15.272 16.1002 15.8784 16.6109 16.3891C17.1216 16.8998 17.728 17.3049 18.3952 17.5813C19.0625 17.8577 19.7777 18 20.5 18C21.2223 18 21.9375 17.8577 22.6048 17.5813C23.272 17.3049 23.8784 16.8998 24.3891 16.3891C24.8998 15.8784 25.3049 15.272 25.5813 14.6048C25.8577 13.9375 26 13.2223 26 12.5C26 11.0413 25.4205 9.64236 24.3891 8.61091C23.3576 7.57946 21.9587 7 20.5 7C19.0413 7 17.6424 7.57946 16.6109 8.61091C15.5795 9.64236 15 11.0413 15 12.5Z" fill="white" stroke="#F66608" stroke-linecap="round" stroke-linejoin="round"/>
<g id="Group 6669590">
<path id="Vector_2" d="M22 11L19 14" stroke="#F66608" stroke-linecap="round" stroke-linejoin="round"/>
<path id="Vector_3" d="M19 11L22 14" stroke="#F66608" stroke-linecap="round" stroke-linejoin="round"/>
</g>
</g>
<path id="Vector_4" d="M8.41361 23.9594L4.521 27.5795" stroke="#2760F0" stroke-miterlimit="10" stroke-linecap="round"/>
<path id="Vector_5" d="M31.7681 23.9594L35.6607 27.5795" stroke="#2760F0" stroke-miterlimit="10" stroke-linecap="round"/>
</g>
</g>
</g>
</svg>
