<svg width="336" height="170" viewBox="0 0 336 170" fill="none" xmlns="http://www.w3.org/2000/svg">
<rect width="335" height="170" fill="white"/>
<path d="M0.5 160H335.5" stroke="#989696" stroke-width="1.5"/>
<path d="M172.085 28.5123C172.085 30.4987 170.566 32.0177 168.58 32.0177C166.593 32.0177 165.074 30.4987 165.074 28.5123C165.074 26.5259 166.593 25.0068 168.58 25.0068C170.566 25.0068 172.085 26.6427 172.085 28.5123Z" stroke="#2760F0" stroke-width="1.5" stroke-miterlimit="10" stroke-linecap="round" stroke-linejoin="round"/>
<path d="M179.095 23.4879C176.758 20.2162 173.019 17.9961 168.579 17.9961C164.139 17.9961 160.399 20.2162 158.062 23.4879" stroke="#2760F0" stroke-width="1.5" stroke-miterlimit="10" stroke-linecap="round" stroke-linejoin="round"/>
<path d="M183.536 19.7489C180.381 15.075 174.773 11.8032 168.58 11.8032C162.387 11.8032 156.895 14.9581 153.623 19.7489" stroke="#2760F0" stroke-width="1.5" stroke-miterlimit="10" stroke-linecap="round" stroke-linejoin="round"/>
<path d="M187.158 15.3086C183.185 9.34939 176.408 5.49341 168.579 5.49341C160.75 5.49341 154.09 9.34939 150 15.3086" stroke="#2760F0" stroke-width="1.5" stroke-miterlimit="10" stroke-linecap="round" stroke-linejoin="round"/>
<path d="M168.15 132.818C171.004 132.818 173.325 130.498 173.325 127.643C173.325 124.788 171.004 122.468 168.15 122.468C165.295 122.468 162.975 124.788 162.975 127.643C162.975 130.498 165.295 132.818 168.15 132.818Z" stroke="#272727" stroke-width="1.5" stroke-miterlimit="10"/>
<path d="M184.62 96.498C184.62 106.726 189.518 127.295 190.34 137.142C191.079 146.083 183.809 158.107 183.809 158.107" stroke="#989696" stroke-width="1.5" stroke-miterlimit="10"/>
<path d="M151.772 96.7146C151.772 106.942 146.874 127.511 146.053 137.359C145.313 146.3 152.583 158.324 152.583 158.324" stroke="#989696" stroke-width="1.5" stroke-miterlimit="10"/>
<path d="M155.241 45.9993V159.977" stroke="#989696" stroke-width="1.5" stroke-miterlimit="10"/>
<path d="M180.912 45.9993V159.977" stroke="#989696" stroke-width="1.5" stroke-miterlimit="10"/>
<path d="M166.727 81.4252H167.087L167.561 83.1779L167.965 81.4252H168.295L167.765 83.5815H167.373L166.902 81.8256L166.44 83.5815H166.049L165.51 81.4252H165.861L166.255 83.1749L166.727 81.4252Z" fill="#272727"/>
<path d="M168.945 82.7836V83.5815H168.618V81.4252H169.299C169.777 81.4252 170.042 81.727 170.042 82.0998C170.042 82.4694 169.777 82.7836 169.299 82.7836H168.945ZM169.275 81.7024H168.945V82.5064H169.275C169.527 82.5064 169.709 82.3585 169.709 82.0998C169.709 81.8379 169.527 81.7024 169.275 81.7024Z" fill="#272727"/>
<path d="M171.565 81.6778L171.374 81.9057C171.26 81.7609 171.097 81.6685 170.93 81.6685C170.687 81.6685 170.585 81.8102 170.585 81.9396C170.585 82.0351 170.625 82.1398 170.816 82.2415L171.072 82.377C171.432 82.568 171.571 82.7467 171.571 83.0085C171.571 83.3597 171.294 83.6185 170.884 83.6185C170.57 83.6185 170.311 83.4922 170.166 83.3104L170.339 83.0455C170.453 83.2026 170.65 83.3351 170.875 83.3351C171.081 83.3351 171.245 83.218 171.245 83.027C171.245 82.8699 171.152 82.7775 170.909 82.6481L170.687 82.531C170.397 82.3801 170.265 82.2076 170.265 81.955C170.265 81.5946 170.582 81.3882 170.927 81.3882C171.171 81.3882 171.402 81.4806 171.565 81.6778Z" fill="#272727"/>
<path d="M166.727 90.0505H167.087L167.561 91.8033L167.965 90.0505H168.295L167.765 92.2069H167.373L166.902 90.451L166.44 92.2069H166.049L165.51 90.0505H165.861L166.255 91.8002L166.727 90.0505Z" fill="#272727"/>
<path d="M168.618 92.2069V90.0505H168.945V92.2069H168.618Z" fill="#272727"/>
<path d="M170.598 91.3043H169.763V92.2069H169.437V90.0505H170.906V90.3309H169.763V91.027H170.598V91.3043Z" fill="#272727"/>
<path d="M171.197 92.2069V90.0505H171.523V92.2069H171.197Z" fill="#272727"/>
<path d="M163.782 99.7631V100.561H163.456V98.4046H164.137C164.614 98.4046 164.879 98.7065 164.879 99.0793C164.879 99.4489 164.614 99.7631 164.137 99.7631H163.782ZM164.112 98.6819H163.782V99.4859H164.112C164.365 99.4859 164.546 99.338 164.546 99.0793C164.546 98.8174 164.365 98.6819 164.112 98.6819Z" fill="#272727"/>
<path d="M166.178 98.3677C166.797 98.3677 167.299 98.8328 167.299 99.4828C167.299 100.133 166.797 100.598 166.178 100.598C165.555 100.598 165.053 100.133 165.053 99.4828C165.053 98.8328 165.555 98.3677 166.178 98.3677ZM166.178 100.315C166.646 100.315 166.963 99.9603 166.963 99.4828C166.963 99.0084 166.646 98.6542 166.178 98.6542C165.709 98.6542 165.389 99.0084 165.389 99.4828C165.389 99.9603 165.709 100.315 166.178 100.315Z" fill="#272727"/>
<path d="M168.655 98.4046H169.015L169.489 100.157L169.893 98.4046H170.222L169.693 100.561H169.301L168.83 98.8051L168.368 100.561H167.977L167.438 98.4046H167.789L168.183 100.154L168.655 98.4046Z" fill="#272727"/>
<path d="M172.071 98.4046V98.685H170.873V99.3257H171.628V99.5999H170.873V100.287H172.071V100.561H170.546V98.4046H172.071Z" fill="#272727"/>
<path d="M173.502 100.561L173.024 99.6584H172.744V100.561H172.418V98.4046H173.074C173.539 98.4046 173.81 98.6542 173.81 99.0238C173.81 99.2302 173.708 99.5167 173.345 99.6183L173.868 100.561H173.502ZM173.483 99.0238C173.483 98.7866 173.308 98.6819 173.049 98.6819H172.744V99.3811H173.049C173.308 99.3811 173.483 99.2518 173.483 99.0238Z" fill="#272727"/>
<path d="M156.321 46.4727C153.806 46.4727 151.752 48.5123 151.752 51.0463L151.752 156.456C151.752 157.177 153.344 159.423 155.305 159.423H181.058C183.019 159.423 184.61 157.177 184.61 154.396V51.0875C184.61 48.5638 182.577 46.5242 180.061 46.5139L156.321 46.4727Z" stroke="#272727" stroke-width="1.5" stroke-miterlimit="10"/>
<path d="M181.489 81.9382H180.431C180.261 81.9382 180.123 82.0761 180.123 82.2463V83.3039C180.123 83.474 180.261 83.612 180.431 83.612H181.489C181.659 83.612 181.797 83.474 181.797 83.3039V82.2463C181.797 82.0761 181.659 81.9382 181.489 81.9382Z" fill="#272727"/>
<path d="M181.489 90.1528H180.431C180.261 90.1528 180.123 90.2907 180.123 90.4609V91.5185C180.123 91.6886 180.261 91.8266 180.431 91.8266H181.489C181.659 91.8266 181.797 91.6886 181.797 91.5185V90.4609C181.797 90.2907 181.659 90.1528 181.489 90.1528Z" fill="#272727"/>
<path d="M181.489 98.3674H180.431C180.261 98.3674 180.123 98.5053 180.123 98.6755V99.7331C180.123 99.9032 180.261 100.041 180.431 100.041H181.489C181.659 100.041 181.797 99.9032 181.797 99.7331V98.6755C181.797 98.5053 181.659 98.3674 181.489 98.3674Z" fill="#272727"/>
<path d="M155.786 98.3674H154.728C154.558 98.3674 154.42 98.5054 154.42 98.6755V99.7331C154.42 99.9032 154.558 100.041 154.728 100.041H155.786C155.956 100.041 156.094 99.9032 156.094 99.7331V98.6755C156.094 98.5054 155.956 98.3674 155.786 98.3674Z" fill="#272727"/>
<path d="M155.786 90.1528H154.728C154.558 90.1528 154.42 90.2908 154.42 90.4609V91.5185C154.42 91.6886 154.558 91.8266 154.728 91.8266H155.786C155.956 91.8266 156.094 91.6886 156.094 91.5185V90.4609C156.094 90.2908 155.956 90.1528 155.786 90.1528Z" fill="#272727"/>
<path d="M155.786 81.9385H154.728C154.558 81.9385 154.42 82.0764 154.42 82.2465V83.3042C154.42 83.4743 154.558 83.6122 154.728 83.6122H155.786C155.956 83.6122 156.094 83.4743 156.094 83.3042V82.2465C156.094 82.0764 155.956 81.9385 155.786 81.9385Z" fill="#272727"/>
</svg>
