<svg width="40" height="29" viewBox="0 0 40 29" fill="none" xmlns="http://www.w3.org/2000/svg">
<g id="Group 6669587">
<g id="Group 3465224">
<g id="Group 3465337">
<path id="Vector 731" d="M23.14 23.6807H3.1C1.9402 23.6807 1 22.7405 1 21.5807V3.31875C1 2.15895 1.9402 1.21875 3.1 1.21875H36.9C38.0598 1.21875 39 2.15895 39 3.31875V21.5807C39 22.7405 38.0598 23.6807 36.9 23.6807H29.7415" stroke="#2760F0"/>
<path id="Vector" d="M8.41361 23.9594L4.521 27.5795" stroke="#2760F0" stroke-miterlimit="10" stroke-linecap="round"/>
<path id="Vector_2" d="M31.7681 23.9594L35.6607 27.5795" stroke="#2760F0" stroke-miterlimit="10" stroke-linecap="round"/>
</g>
<g id="Group 3465343">
<g id="Group 3465358">
<g id="Group 5412">
<path id="Ellipse 190" d="M25.5001 22.5791C25.8165 22.5791 26.073 22.3227 26.073 22.0063C26.073 21.6899 25.8165 21.4334 25.5001 21.4334C25.1837 21.4334 24.9272 21.6899 24.9272 22.0063C24.9272 22.3227 25.1837 22.5791 25.5001 22.5791Z" fill="#F66608"/>
<path id="Ellipse 191" d="M25.5001 24.5504C25.8165 24.5504 26.073 24.2939 26.073 23.9775C26.073 23.6611 25.8165 23.4047 25.5001 23.4047C25.1837 23.4047 24.9272 23.6611 24.9272 23.9775C24.9272 24.2939 25.1837 24.5504 25.5001 24.5504Z" fill="#F66608"/>
</g>
<g id="Group 5413">
<path id="Ellipse 190_2" d="M27.1852 22.5791C27.5016 22.5791 27.758 22.3227 27.758 22.0063C27.758 21.6899 27.5016 21.4334 27.1852 21.4334C26.8688 21.4334 26.6123 21.6899 26.6123 22.0063C26.6123 22.3227 26.8688 22.5791 27.1852 22.5791Z" fill="#F66608"/>
<path id="Ellipse 191_2" d="M27.1852 24.491C27.5016 24.491 27.758 24.2345 27.758 23.9181C27.758 23.6018 27.5016 23.3453 27.1852 23.3453C26.8688 23.3453 26.6123 23.6018 26.6123 23.9181C26.6123 24.2345 26.8688 24.491 27.1852 24.491Z" fill="#F66608"/>
</g>
</g>
<rect id="Rectangle 3318" x="23.3164" y="13.5134" width="6.07666" height="14.242" rx="0.9" stroke="#F66608"/>
<circle id="Ellipse 1073" opacity="0.5" cx="26.3169" cy="17.6006" r="1.42722" stroke="#F66608"/>
</g>
</g>
</g>
</svg>
