<svg width="27" height="27" viewBox="0 0 27 27" fill="none" xmlns="http://www.w3.org/2000/svg">
<rect x="0.890625" y="0.4375" width="26" height="26" rx="13" transform="rotate(-0.163032 0.890625 0.4375)" fill="#989696" fill-opacity="0.3"/>
<path d="M10.2736 19.4117L17.7296 19.3904L17.7241 17.4704L13.0841 17.4836L14.4088 16.3119C17.1379 13.9041 17.5663 12.6229 17.5625 11.2949C17.5577 9.59888 16.2571 8.00258 13.8092 8.00954C11.4252 8.01633 10.1175 9.55605 10.122 11.124C10.1235 11.668 10.2051 12.1958 10.5429 12.8509L12.5899 12.477C12.3644 11.9657 12.2994 11.5979 12.2985 11.3099C12.2962 10.4939 12.9348 9.98004 13.7828 9.97763C14.7427 9.9749 15.2727 10.6454 15.2748 11.4134C15.2774 12.3254 14.9758 13.1422 13.5715 14.4742C12.1514 15.8223 10.2681 17.4917 10.2681 17.4917L10.2736 19.4117Z" fill="#191919"/>
</svg>
