<svg width="335" height="170" viewBox="0 0 335 170" fill="none" xmlns="http://www.w3.org/2000/svg">
<path d="M246.187 21.9766H141.719V126.445H246.187V21.9766Z" stroke="#989696" stroke-width="1.5" stroke-miterlimit="10" stroke-linecap="round"/>
<path d="M238.243 29.9141H196.562V71.5941H238.243V29.9141Z" stroke="#989696" stroke-width="1.5" stroke-miterlimit="10" stroke-linecap="round"/>
<path d="M238.243 76.8203H196.562V118.5H238.243V76.8203Z" stroke="#989696" stroke-width="1.5" stroke-miterlimit="10" stroke-linecap="round"/>
<path d="M191.332 29.9141H149.652V71.5941H191.332V29.9141Z" stroke="#989696" stroke-width="1.5" stroke-miterlimit="10" stroke-linecap="round"/>
<path d="M191.332 76.8203H149.652V118.5H191.332V76.8203Z" stroke="#989696" stroke-width="1.5" stroke-miterlimit="10" stroke-linecap="round"/>
<path opacity="0.5" d="M232.301 81.7578L207.941 106.118" stroke="#989696" stroke-width="1.5" stroke-miterlimit="10" stroke-linecap="round"/>
<path opacity="0.5" d="M222.461 81.7578L207.941 96.2778" stroke="#989696" stroke-width="1.5" stroke-miterlimit="10" stroke-linecap="round"/>
<path opacity="0.5" d="M177.621 43.625L166.641 54.605" stroke="#989696" stroke-width="1.5" stroke-miterlimit="10" stroke-linecap="round"/>
<path opacity="0.5" d="M165.491 50.75L158.641 57.6" stroke="#989696" stroke-width="1.5" stroke-miterlimit="10" stroke-linecap="round"/>
<path d="M294.416 132.016H269.93V159.353H294.416V132.016Z" stroke="#989696" stroke-width="1.5" stroke-miterlimit="10" stroke-linecap="round"/>
<path d="M269.93 139.859H294.416" stroke="#989696" stroke-width="1.5" stroke-miterlimit="10" stroke-linecap="round"/>
<path d="M281.555 105.625V132.017" stroke="#989696" stroke-width="1.5" stroke-miterlimit="10" stroke-linecap="round"/>
<path d="M281.555 126.895C281.555 126.895 282.667 112.907 300.507 113.825C300.507 113.825 297.267 134.39 281.555 126.895Z" stroke="#989696" stroke-width="1.5" stroke-miterlimit="10" stroke-linecap="round"/>
<path d="M281.559 117.485C281.559 117.485 267.584 107.668 281.559 93.6797C281.559 93.6797 295.45 103.594 281.559 117.485Z" stroke="#989696" stroke-width="1.5" stroke-miterlimit="10" stroke-linecap="round"/>
<path d="M281.556 126.896C281.556 126.896 280.221 111.156 262.27 114.465C262.27 114.465 264.8 133.125 281.556 126.896Z" stroke="#989696" stroke-width="1.5" stroke-miterlimit="10" stroke-linecap="round"/>
<path d="M274.715 122.979L281.57 126.914C286.506 125.732 292.36 121.102 292.36 121.102" stroke="#989696" stroke-width="1.5" stroke-miterlimit="10" stroke-linecap="round"/>
<path d="M268.902 119.477L270.96 120.798" stroke="#989696" stroke-width="1.5" stroke-miterlimit="10" stroke-linecap="round"/>
<path d="M2 159.914H332" stroke="#989696" stroke-width="1.5" stroke-miterlimit="10" stroke-linecap="round"/>
<path fill-rule="evenodd" clip-rule="evenodd" d="M77.5036 59.9453C68.0736 59.9453 60.4336 67.5853 60.4336 77.0153C60.4336 86.4453 68.0736 94.0953 77.5036 94.0953C86.9336 94.0953 94.5836 86.4453 94.5836 77.0153C94.5836 67.5853 86.9336 59.9453 77.5036 59.9453ZM84.2836 71.8753C84.2536 71.9253 84.2236 71.9753 84.1836 72.0253L77.0736 83.3853C76.9736 83.6453 76.7836 83.8753 76.5436 84.0253C76.3036 84.1753 76.0236 84.2553 75.7636 84.2553C75.3136 84.2553 74.8536 84.0253 74.5936 83.6153L70.9836 78.7653C70.9036 78.7053 70.8436 78.6153 70.7936 78.5253C70.3536 77.8853 70.5436 76.9953 71.1836 76.5753C71.4236 76.4153 71.7036 76.3353 71.9636 76.3353C72.4336 76.3353 72.8836 76.5653 73.1536 76.9753L75.8636 80.2953L81.7536 70.6553C81.8036 70.5453 81.8636 70.4453 81.9436 70.3553C82.3736 69.8153 83.1136 69.6453 83.7236 69.9753C84.4036 70.3553 84.6536 71.2153 84.2936 71.8953L84.2836 71.8753Z" fill="#2760F0"/>
<path d="M52.7422 66.3078V58.2578C52.7422 54.9441 55.4285 52.2578 58.7422 52.2578H66.7922" stroke="#989696" stroke-width="1.5" stroke-miterlimit="10" stroke-linecap="round"/>
<path d="M88.2227 52.2578H96.2827C99.5964 52.2578 102.283 54.9441 102.283 58.2578V66.3078" stroke="#989696" stroke-width="1.5" stroke-miterlimit="10" stroke-linecap="round"/>
<path d="M102.283 87.7344V95.7844C102.283 99.0981 99.5964 101.784 96.2827 101.784H88.2227" stroke="#989696" stroke-width="1.5" stroke-miterlimit="10" stroke-linecap="round"/>
<path d="M66.7922 101.784H58.7422C55.4285 101.784 52.7422 99.0981 52.7422 95.7844V87.7344" stroke="#989696" stroke-width="1.5" stroke-miterlimit="10" stroke-linecap="round"/>
<path d="M118.977 107.469H38.25V115.907H118.977V107.469Z" stroke="#989696" stroke-width="1.5" stroke-miterlimit="10" stroke-linecap="round"/>
</svg>
