<?xml version="1.0" encoding="utf-8"?>
<!-- Generator: Adobe Illustrator 26.3.1, SVG Export Plug-In . SVG Version: 6.00 Build 0)  -->
<svg version="1.1" id="Layer_1" xmlns="http://www.w3.org/2000/svg" xmlns:xlink="http://www.w3.org/1999/xlink" x="0px" y="0px"
	 viewBox="0 0 335 170" style="enable-background:new 0 0 335 170;" xml:space="preserve">
<style type="text/css">
	.st0{fill:none;stroke:#989696;stroke-width:1.5;stroke-linecap:round;stroke-miterlimit:10;}
	.st1{fill:none;stroke:#272727;stroke-width:1.5;stroke-miterlimit:10;}
	.st2{fill:none;stroke:#989696;stroke-width:1.5;stroke-miterlimit:10;}
</style>
<line id="Line_98" class="st0" x1="0" y1="159.5" x2="335" y2="159.5"/>
<path class="st1" d="M84.1,44.4h75.8c3,0,5.4,2.9,5.4,6.5v102.2c0,3.6-2.4,6.5-5.4,6.5H84.1c-3,0-5.4-2.9-5.4-6.5V51
	C78.7,47.3,81.2,44.4,84.1,44.4z"/>
<path class="st2" d="M89.1,52.6h65.8c1.8,0,3.3,1.8,3.3,4v90.8c0,2.2-1.5,4-3.3,4H89.1c-1.8,0-3.3-1.8-3.3-4V56.7
	C85.8,54.4,87.3,52.6,89.1,52.6z"/>
<g>
	<line class="st2" x1="212.3" y1="92.9" x2="218.8" y2="92.9"/>
	<line id="Line_154" class="st1" x1="255.9" y1="123.7" x2="256" y2="98"/>
	<path id="Path_3482" class="st1" d="M217.2,128.6c4-6.7,11.3-11.8,19-11.8c10.9,0,19.7,8.8,19.7,19.7c0,3.2-0.8,6.3-2.2,9.1
		l-1.5,2.6c-3.5,4.8-9.1,7.6-15,7.6H236c-10.3,0-18.7-8.4-18.7-18.7V99.4h-3.7V137c0,12.4,10.1,22.4,22.5,22.5h1.2
		c12.3-0.1,22.3-10.1,22.2-22.4l0,0v-1.3c0-12.8-10.4-23.2-23.2-23.2l0,0c-3.8,0-7.4,0.9-10.8,2.7c-3,1.7-5.8,3.8-8.2,6.2"/>
	<path id="Path_3632" class="st1" d="M259.5,97.9l-0.1,39.1"/>
	<line id="Line_165" class="st2" x1="262.1" y1="84.5" x2="262.1" y2="56.8"/>
	<line id="Line_152" class="st2" x1="257" y1="88.7" x2="260.7" y2="88.7"/>
	<line id="Line_153" class="st2" x1="255.2" y1="92.8" x2="258.8" y2="92.8"/>
	<rect id="Rectangle_1335" x="254.9" y="56.1" class="st1" width="17.7" height="29"/>
	<g id="Group_2584" transform="translate(14.027 5.259)">
		<rect id="Rectangle_1336" x="258.6" y="64" class="st1" width="9.7" height="3.4"/>
	</g>
	<path id="Rectangle_1338" class="st1" d="M254.9,85.2h5.7v11.1c0,1.1-0.9,2-2,2h-1.8c-1.1,0-2-0.9-2-2l0,0L254.9,85.2L254.9,85.2z"
		/>
	<line class="st2" x1="212.3" y1="92.9" x2="218.8" y2="92.9"/>
	<g id="Power_pin_00000065047618603988287650000004990627265246411655_" transform="translate(1195.83 -154.512)">
		<g id="Group_2627_00000102504805135434387600000003526760883449139606_" transform="translate(7) rotate(90)">
			
				<rect id="Rectangle_1332_00000170256145142417213040000003910908468178912182_" x="229.4" y="983.1" transform="matrix(2.535182e-06 1 -1 2.535182e-06 1218.515 755.9995)" class="st1" width="3.8" height="8.4"/>
			<path id="Path_3661_00000021104889395757435010000012127880207013649559_" class="st1" d="M247.9,990.6"/>
			
				<rect id="Rectangle_1334_00000066478723341808470440000007191296300290325387_" x="250.2" y="985.9" transform="matrix(2.535182e-06 1 -1 2.535182e-06 1239.4375 735.1225)" class="st1" width="4" height="2.7"/>
			<path id="Path_3481_00000075843471873127142650000012387300738285741236_" class="st1" d="M250.8,984.1v6.6l-8.6,1.1h-6.7V983
				h6.7L250.8,984.1z"/>
		</g>
	</g>
</g>
</svg>
