<?xml version="1.0" encoding="UTF-8"?><svg id="Layer_1" xmlns="http://www.w3.org/2000/svg" viewBox="0 0 335 170"><defs><style>.cls-1{stroke:#989696;}.cls-1,.cls-2,.cls-3{fill:none;stroke-miterlimit:10;stroke-width:1.5px;}.cls-2{stroke:#2760f0;}.cls-3{stroke:#272727;}.cls-4,.cls-5{fill:#2760f0;}.cls-5{fill-rule:evenodd;}</style></defs><line id="Line_98" class="cls-1" y1="159.02" x2="335" y2="159.02"/><path class="cls-3" d="M221.36,96.65v61.97H110.62v-61.98"/><path class="cls-3" d="M108.03,97.19c-1.37,0-2.73-.63-3.61-1.82-1.48-1.99-1.06-4.8,.94-6.28l60.84-45.07,60.84,45.07c1.99,1.48,2.41,4.29,.94,6.28-1.48,1.99-4.29,2.41-6.28,.94l-55.5-41.11-55.5,41.11c-.8,.6-1.74,.88-2.67,.88Z"/><g><line class="cls-1" x1="84.35" y1="125.01" x2="84.35" y2="158.3"/><rect class="cls-1" x="77.24" y="111.52" width="14.21" height="29.64" rx="6.06" ry="6.06"/></g><g><line class="cls-1" x1="247.76" y1="139.12" x2="247.76" y2="158.19"/><path class="cls-1" d="M248.35,130.19c-.34,0-.68,.03-1.02,.07-1-1.07-2.42-1.75-4-1.75-3.03,0-5.48,2.45-5.48,5.48,0,1.88,.95,3.54,2.4,4.53,.12,4.38,3.69,7.89,8.1,7.89s8.11-3.63,8.11-8.11-3.63-8.11-8.11-8.11Z"/></g><path class="cls-5" d="M167.62,0c-7.48,0-13.54,6.06-13.54,13.54s6.06,13.55,13.54,13.55,13.55-6.07,13.55-13.55-6.07-13.54-13.55-13.54Zm5.38,9.46s-.05,.08-.08,.12l-5.64,9.01c-.08,.21-.23,.39-.42,.51s-.41,.18-.62,.18c-.36,0-.72-.18-.93-.51l-2.86-3.85c-.06-.05-.11-.12-.15-.19-.35-.51-.2-1.21,.31-1.55,.19-.13,.41-.19,.62-.19,.37,0,.73,.18,.94,.51l2.15,2.63,4.67-7.65c.04-.09,.09-.17,.15-.24h0c.34-.43,.93-.56,1.41-.3,.54,.3,.74,.98,.45,1.52Z"/><g><circle id="Oval" class="cls-2" cx="167.62" cy="148.46" r="2.72"/><circle id="Oval_Copy_6" class="cls-2" cx="167.62" cy="139.68" r="1.6"/><circle id="Oval_Copy_7" class="cls-2" cx="167.62" cy="133.82" r="1.6"/><circle id="Oval_Copy_8" class="cls-2" cx="167.62" cy="127.95" r="1.6"/><g id="Rectangle"><rect class="cls-2" x="157.75" y="102.1" width="19.75" height="55.53" rx="2.13" ry="2.13"/></g></g><g><g id="Internet"><path class="cls-4" d="M166.2,94.89c-1.57,0-2.81-1.23-2.81-2.81s1.23-2.81,2.81-2.81,2.81,1.29,2.81,2.81-1.23,2.81-2.81,2.81Zm0-4.36c-.87,0-1.56,.68-1.56,1.56s.68,1.56,1.56,1.56,1.56-.68,1.56-1.56-.73-1.56-1.56-1.56Z"/></g><g><path class="cls-4" d="M172.83,89.57c-.2,0-.39-.09-.51-.26-1.45-2.05-3.68-3.23-6.12-3.23s-4.67,1.18-6.12,3.23c-.2,.28-.59,.35-.87,.15s-.35-.59-.15-.87c1.69-2.39,4.29-3.75,7.14-3.75s5.45,1.37,7.14,3.75c.2,.28,.13,.67-.15,.87-.11,.08-.24,.11-.36,.11Z"/><path class="cls-4" d="M175.62,87.21c-.2,0-.4-.1-.52-.27-1.99-2.94-5.32-4.7-8.91-4.7s-6.8,1.72-8.91,4.71c-.2,.28-.59,.35-.87,.15-.28-.2-.35-.59-.15-.87,2.32-3.28,6.03-5.24,9.93-5.24s7.72,1.96,9.94,5.25c.19,.29,.12,.67-.17,.87-.11,.07-.23,.11-.35,.11h.01Z"/><path class="cls-4" d="M177.89,84.42c-.2,0-.4-.1-.52-.28-2.5-3.71-6.68-5.92-11.17-5.92s-8.67,2.21-11.17,5.92c-.19,.29-.58,.36-.87,.17s-.36-.58-.17-.87c2.73-4.05,7.3-6.47,12.21-6.47s9.48,2.42,12.21,6.47c.19,.29,.12,.67-.17,.87-.11,.07-.23,.11-.35,.11Z"/></g></g></svg>