<svg width="335" height="170" viewBox="0 0 335 170" fill="none" xmlns="http://www.w3.org/2000/svg">
<rect width="335" height="170" fill="white"/>
<path d="M0 159.586H335" stroke="#989696" stroke-width="1.5"/>
<path d="M199.122 159.596H204.062C206.982 159.596 209.352 157.226 209.352 154.306L208.352 55.0459C208.352 52.7559 206.872 50.7259 204.692 50.0159" stroke="#989696" stroke-width="1.5" stroke-miterlimit="10"/>
<path d="M179.421 159.596H184.361C187.281 159.596 189.651 157.126 189.651 154.066L188.651 49.686C188.651 44.286 185.691 42.846 183.511 42.106" stroke="#989696" stroke-width="1.5" stroke-miterlimit="10"/>
<path d="M123.121 84.9459C123.121 93.9659 119.581 139.096 120.041 142.876C120.461 146.326 121.931 149.286 122.891 151.296C125.261 156.266 130.421 159.576 130.421 159.576H177.251C181.281 159.576 184.541 156.326 184.541 152.326L183.541 52.0859C183.541 48.6159 180.191 46.1159 176.841 47.0959L128.281 62.0859C125.231 62.9759 123.131 65.7559 123.131 68.9159V85.5859" stroke="#272727" stroke-width="1.5" stroke-miterlimit="10"/>
<path d="M189.721 85.4251L188.491 85.2051C188.401 85.1851 188.331 85.1051 188.331 85.0151V83.7851C188.331 83.6651 188.441 83.5751 188.561 83.5951L189.791 83.8151C189.881 83.8351 189.951 83.9151 189.951 84.0051V85.2351C189.951 85.3551 189.841 85.4451 189.721 85.4251Z" fill="#272727"/>
<path d="M189.721 93.7451L188.491 93.5251C188.401 93.5051 188.331 93.4251 188.331 93.3351V92.1051C188.331 91.9851 188.441 91.8951 188.561 91.9151L189.791 92.1351C189.881 92.1551 189.951 92.2351 189.951 92.3251V93.5551C189.951 93.6751 189.841 93.7651 189.721 93.7451Z" fill="#272727"/>
<path d="M189.721 102.055L188.491 101.835C188.401 101.815 188.331 101.735 188.331 101.645V100.415C188.331 100.295 188.441 100.205 188.561 100.225L189.791 100.445C189.881 100.465 189.951 100.545 189.951 100.635V101.865C189.951 101.985 189.841 102.075 189.721 102.055Z" fill="#272727"/>
<path d="M209.321 89.4251L208.091 89.2051C208.001 89.1851 207.931 89.1051 207.931 89.0151V87.7851C207.931 87.6651 208.041 87.5751 208.161 87.5951L209.391 87.8151C209.481 87.8351 209.551 87.9151 209.551 88.0051V89.2351C209.551 89.3551 209.441 89.4451 209.321 89.4251Z" fill="#272727"/>
<path d="M209.321 97.7451L208.091 97.5251C208.001 97.5051 207.931 97.4251 207.931 97.3351V96.1051C207.931 95.9851 208.041 95.8951 208.161 95.9151L209.391 96.1351C209.481 96.1551 209.551 96.2351 209.551 96.3251V97.5551C209.551 97.6751 209.441 97.7651 209.321 97.7451Z" fill="#272727"/>
<path d="M209.321 106.055L208.091 105.835C208.001 105.815 207.931 105.735 207.931 105.645V104.415C207.931 104.295 208.041 104.205 208.161 104.225L209.391 104.445C209.481 104.465 209.551 104.545 209.551 104.635V105.865C209.551 105.985 209.441 106.075 209.321 106.055Z" fill="#272727"/>
<path d="M134.691 85.686C139.611 106.636 151.261 125.946 167.501 140.066" stroke="white" stroke-width="1.5" stroke-miterlimit="10"/>
<path d="M178.071 159.596H207.781C210.701 159.596 213.071 157.226 213.071 154.306L212.071 56.436C212.071 54.146 210.591 52.116 208.411 51.406L184.821 42.476C183.021 41.896 181.101 41.846 179.271 42.326L153.896 50.211L128.521 58.096" stroke="#272727" stroke-width="1.5" stroke-miterlimit="10"/>
<path d="M199.861 136.457C202.201 136.457 204.111 134.197 204.111 131.417C204.111 128.637 202.201 126.377 199.861 126.377C197.521 126.377 195.611 128.637 195.611 131.417C195.611 134.197 197.521 136.457 199.861 136.457Z" stroke="#272727" stroke-width="1.5" stroke-miterlimit="10"/>
</svg>
