<svg width="34" height="34" viewBox="0 0 34 34" fill="none" xmlns="http://www.w3.org/2000/svg">
<g id="Group 6669597">
<path id="Vector" d="M16.9219 32.5156C25.7584 32.5156 32.9219 25.3522 32.9219 16.5156C32.9219 7.67907 25.7584 0.515625 16.9219 0.515625C8.08532 0.515625 0.921875 7.67907 0.921875 16.5156C0.921875 25.3522 8.08532 32.5156 16.9219 32.5156Z" stroke="#2760F0" stroke-miterlimit="10"/>
<g id="Group">
<path id="Vector_2" d="M12.8889 18.9863C16.2333 18.9863 18.9444 16.2752 18.9444 12.9309C18.9444 9.58658 16.2333 6.87549 12.8889 6.87549C9.54462 6.87549 6.8335 9.58658 6.8335 12.9309C6.8335 16.2752 9.54462 18.9863 12.8889 18.9863Z" fill="#4285F4"/>
<path id="Vector_3" d="M22.1469 19.2039C23.5618 19.2039 24.7088 18.0569 24.7088 16.642C24.7088 15.2271 23.5618 14.0801 22.1469 14.0801C20.732 14.0801 19.585 15.2271 19.585 16.642C19.585 18.0569 20.732 19.2039 22.1469 19.2039Z" fill="#EA4335"/>
<path id="Vector_4" d="M25.8128 14.7435C26.4688 14.7435 27.0006 14.2117 27.0006 13.5557C27.0006 12.8997 26.4688 12.3679 25.8128 12.3679C25.1568 12.3679 24.625 12.8997 24.625 13.5557C24.625 14.2117 25.1568 14.7435 25.8128 14.7435Z" fill="#34A853"/>
<path id="Vector_5" d="M22.1587 26.1632C23.818 26.1632 25.1632 24.818 25.1632 23.1587C25.1632 21.4994 23.818 20.1543 22.1587 20.1543C20.4994 20.1543 19.1543 21.4994 19.1543 23.1587C19.1543 24.818 20.4994 26.1632 22.1587 26.1632Z" fill="#FBBC05"/>
</g>
</g>
</svg>
